<?xml version="1.0" encoding="UTF-8"?>
<svg id="a" data-name="Ebene 1" xmlns="http://www.w3.org/2000/svg" width="680" height="240" xmlns:xlink="http://www.w3.org/1999/xlink" viewBox="0 0 680 240">
  <defs>
    <style>
      .d {
        fill: #fff;
      }

      .e {
        fill: url(#c);
        stroke: #fff;
        stroke-linecap: round;
        stroke-linejoin: round;
        stroke-width: 3px;
      }

      .f {
        fill: url(#b);
      }
    </style>
    <linearGradient id="b" data-name="Unbenannter Verlauf 100" x1="5.1544" y1="-1.8738" x2="682.7441" y2="244.7486" gradientUnits="userSpaceOnUse">
      <stop offset="0" stop-color="#0e0a0a"/>
      <stop offset="1" stop-color="#000057"/>
    </linearGradient>
    <linearGradient id="c" data-name="Unbenannter Verlauf 136" x1="230.2191" y1="120" x2="16.8613" y2="120" gradientUnits="userSpaceOnUse">
      <stop offset="0" stop-color="#0e0a0a"/>
      <stop offset="1" stop-color="#000057"/>
    </linearGradient>
  </defs>
  <rect class="f" width="680" height="240"/>
  <path class="e" d="M123.5402,139.3962l-19.3962-19.3962,19.3962-19.3962,19.3962,19.3962-19.3962,19.3962ZM102.9318,82.4199l-24.2452-24.2452L123.5402,13.3211l44.8536,44.8536-24.2452,24.2452-20.6084-20.6084-20.6084,20.6084ZM61.715,164.8536l-44.8536-44.8536,44.8536-44.8536,24.2452,24.2452-20.6084,20.6084,20.6084,20.6084-24.2452,24.2452ZM185.3655,164.8536l-24.2452-24.2452,20.6084-20.6084-20.6084-20.6084,24.2452-24.2452,44.8536,44.8536-44.8536,44.8536ZM123.5402,226.6789l-44.8536-44.8536,24.2452-24.2452,20.6084,20.6084,20.6084-20.6084,24.2452,24.2452-44.8536,44.8536Z"/>
  <g>
    <path class="d" d="M240.5371,145.1354v-48.2402h34.7754v13.6084h-18.0713v7.7759h13.752v13.6079h-13.752v13.248h-16.7041Z"/>
    <path class="d" d="M279.7412,112.3395c3.1914-2.9995,8.0029-4.5,14.4355-4.5s11.2432,1.5005,14.4365,4.5c3.1914,3.0005,4.7881,7.8838,4.7881,14.6519s-1.5967,11.6406-4.7881,14.6162c-3.1934,2.9766-8.0049,4.4639-14.4365,4.4639s-11.2441-1.4873-14.4355-4.4639c-3.1934-2.9756-4.7881-7.8481-4.7881-14.6162s1.5947-11.6514,4.7881-14.6519ZM291.873,131.7433c.4316.8643,1.1992,1.2959,2.3037,1.2959,1.1035,0,1.8721-.4316,2.3047-1.2959.4316-.8638.6475-2.459.6475-4.7881,0-2.3276-.2158-3.9238-.6475-4.7876-.4326-.8643-1.2012-1.2964-2.3047-1.2964-1.1045,0-1.8721.4321-2.3037,1.2964-.4316.8638-.6484,2.46-.6484,4.7876,0,2.3291.2168,3.9243.6484,4.7881Z"/>
    <path class="d" d="M332.624,145.1354h-16.1279v-36.3599h16.1279v3.3838c3.0244-2.8799,5.5684-4.3198,7.6328-4.3198v14.9761c-1.6328,0-3.7441.6479-6.3359,1.9438l-1.2969.6479v19.728Z"/>
    <path class="d" d="M341.6953,108.7755h17.7842l.7197,22.896h.8643l1.6562-21.96h14.6162l2.3037,21.96h.8643l.792-22.896h15.9121l-3.6729,36.3599h-22.9678l-1.2236-15.6958-1.3682,15.6958h-21.96l-4.3203-36.3599Z"/>
    <path class="d" d="M435.2949,120.5113v13.6802c.4316.3364,1.0078.6006,1.7285.792l-.2168,10.2236c-3.7432.5762-6.3115.8643-7.7041.8643s-2.6631-.2046-3.8154-.6118-1.9209-.8281-2.3037-1.2603l-.5762-.6479c-2.9766,1.6797-6.5879,2.52-10.8359,2.52s-7.4521-.9722-9.6123-2.916-3.2402-5.0762-3.2402-9.396,1.2246-7.2114,3.6719-8.6758c2.4482-1.4639,6.3115-2.292,11.5928-2.4844l5.1836-.2158v-.6479c0-.9111-1.0078-1.3682-3.0244-1.3682-4.3682,0-8.7363.2407-13.1035.7202l-2.376.2158-.3604-10.9438c6.3359-1.6797,12.1201-2.52,17.3525-2.52,5.4717,0,9.7197.8164,12.7441,2.4478,3.2637,1.728,4.8955,5.1367,4.8955,10.2241ZM416.4307,134.9835c.9111,0,1.8242-.3604,2.7363-1.0801v-2.6641l-2.4482.144c-1.248.0967-1.8721.7197-1.8721,1.8721s.5283,1.728,1.584,1.728Z"/>
    <path class="d" d="M456.2461,145.1354h-16.1279v-36.3599h16.1279v3.3838c3.0244-2.8799,5.5684-4.3198,7.6328-4.3198v14.9761c-1.6328,0-3.7441.6479-6.3359,1.9438l-1.2969.6479v19.728Z"/>
  </g>
  <g>
    <path class="d" d="M487.5,95.4532h16.12v-.04l-16.12.04Z"/>
    <path class="d" d="M503.62,131.1033v-35.65h-16.12v12.82l-5.8401-.43c-10.6099,0-15.9099,6.38-15.9099,19.15,0,6.24,1.0601,10.98,3.1699,14.22,2.1101,3.24,5.8101,4.86,11.0901,4.86,2.3999,0,4.9199-.84,7.5601-2.52l.1399,1.58v.05l33.1801-.05v-14.03h-17.27ZM487.5,132.8232l-2.24.22c-1.29,0-2.16-.53-2.5901-1.59-.4299-1.05-.6499-2.55-.6499-4.5,0-1.94.21-3.44.61-4.5.41-1.05,1.26-1.58,2.5599-1.58.48,0,1.25.07,2.3101.21v11.74Z"/>
    <path class="d" d="M523.5639,105.2813v-11.3545h16.7721v11.3545h-16.7721ZM523.6373,145.1349v-37.479h16.6241v37.479h-16.6241Z"/>
    <path class="d" d="M561.0419,145.1349h-16.6241v-37.479h16.5506v1.9297c3.1165-1.9297,5.8373-2.894,8.1636-2.894,5.3431,0,9.0786,1.4475,11.2066,4.3415,2.127,2.894,3.1909,8.0035,3.1909,15.3256v18.7762h-16.6241v-17.6629c0-4.3043-.8908-6.4574-2.6715-6.4574l-3.192.5194v23.6009Z"/>
    <path class="d" d="M603.9364,145.1349h-16.6241v-51.2081h16.6241v25.752h2.1531l3.3389-12.0229h16.4017l-5.3431,18.1089,5.789,19.3701h-16.6241l-3.4889-10.9841h-2.2266v10.9841Z"/>
  </g>
</svg>