<?xml version="1.0" encoding="UTF-8"?>
<svg id="g" data-name="Ebene 8" xmlns="http://www.w3.org/2000/svg" width="3512.7317" height="606.4375" xmlns:xlink="http://www.w3.org/1999/xlink" viewBox="0 0 3512.7317 606.4375">
  <defs>
    <style>
      .y {
        fill: url(#k);
      }

      .z {
        fill: url(#w);
      }

      .aa {
        fill: #f2d74d;
      }

      .ab {
        fill: url(#t);
      }

      .ac {
        fill: #121212;
      }

      .ad {
        fill: url(#o);
      }

      .ae {
        fill: url(#j);
      }

      .af {
        fill: url(#q);
      }

      .ag {
        fill: #ffe45c;
      }

      .ah {
        fill: url(#x);
      }

      .ai {
        fill: url(#p);
      }

      .aj {
        fill: url(#r);
      }

      .ak {
        fill: url(#n);
      }

      .al {
        fill: url(#u);
      }

      .am {
        fill: url(#s);
      }
    </style>
    <linearGradient id="j" data-name="Neues Verlaufsfeld 4" x1="129.0078" y1="131.8164" x2="931.6504" y2="131.8164" gradientUnits="userSpaceOnUse">
      <stop offset="0" stop-color="#b6572a"/>
      <stop offset=".0699" stop-color="#bb5e2b"/>
      <stop offset=".1747" stop-color="#ca7230"/>
      <stop offset=".2895" stop-color="#e19137"/>
      <stop offset=".4432" stop-color="#e29c39"/>
      <stop offset=".6053" stop-color="#e6ad3d"/>
    </linearGradient>
    <linearGradient id="k" data-name="Unbenannter Verlauf 846" x1="56" y1="414.0093" x2="761.71" y2="414.0093" gradientUnits="userSpaceOnUse">
      <stop offset="0" stop-color="#b6572a"/>
      <stop offset=".0699" stop-color="#bb5e2b"/>
      <stop offset=".1747" stop-color="#ca7230"/>
      <stop offset=".2895" stop-color="#e19137"/>
      <stop offset=".4432" stop-color="#e29c39"/>
      <stop offset=".6053" stop-color="#e6ad3d"/>
    </linearGradient>
    <linearGradient id="n" data-name="Unbenannter Verlauf 274" x1="1589.9414" y1="487.5387" x2="1089.9414" y2="487.5387" gradientUnits="userSpaceOnUse">
      <stop offset="0" stop-color="#f7d74b"/>
      <stop offset=".3038" stop-color="#dfae42"/>
      <stop offset=".5862" stop-color="#ce903c"/>
      <stop offset=".8278" stop-color="#c37e39"/>
      <stop offset="1" stop-color="#c07838"/>
    </linearGradient>
    <linearGradient id="o" data-name="Unbenannter Verlauf 274" x1="2962.0391" x2="3462.0391" y2="487.5387" xlink:href="#n"/>
    <linearGradient id="p" data-name="Unbenannter Verlauf 840" x1="-1865.9634" y1="-64.9375" x2="-1865.9634" y2="-64.9375" gradientUnits="userSpaceOnUse">
      <stop offset=".0292" stop-color="#b6572a"/>
      <stop offset=".3655" stop-color="#e19137"/>
      <stop offset=".5848" stop-color="#e6ad3d"/>
    </linearGradient>
    <linearGradient id="q" data-name="Unbenannter Verlauf 840" x1="1933.9282" y1="524.6514" x2="1933.9282" y2="440.5117" xlink:href="#p"/>
    <linearGradient id="r" data-name="Unbenannter Verlauf 840" x1="2119.0474" y1="524.6514" x2="2119.0474" y2="440.5117" xlink:href="#p"/>
    <linearGradient id="s" data-name="Unbenannter Verlauf 840" x1="2486.7695" y1="524.6514" x2="2486.7695" y2="440.6174" xlink:href="#p"/>
    <linearGradient id="t" data-name="Unbenannter Verlauf 840" x1="2664.3662" y1="524.5428" x2="2664.3662" y2="440.6203" xlink:href="#p"/>
    <linearGradient id="u" data-name="Unbenannter Verlauf 840" x1="2814.6719" y1="524.5428" x2="2814.6719" y2="440.6203" xlink:href="#p"/>
    <linearGradient id="w" data-name="Unbenannter Verlauf 61" x1="-1865.9634" y1="-64.9375" x2="-1865.9634" y2="-64.9375" gradientUnits="userSpaceOnUse">
      <stop offset="0" stop-color="#e1e1de"/>
      <stop offset=".15" stop-color="#d0cfcd"/>
      <stop offset=".2716" stop-color="#d3d2d0"/>
      <stop offset=".3854" stop-color="#dededb"/>
      <stop offset=".4957" stop-color="#f0f0ed"/>
      <stop offset=".5058" stop-color="#f3f3f0"/>
    </linearGradient>
    <linearGradient id="x" data-name="Unbenannter Verlauf 56" x1="-1865.9634" y1="-64.9375" x2="-1865.9634" y2="-64.9375" gradientUnits="userSpaceOnUse">
      <stop offset="0" stop-color="#e1e1de"/>
      <stop offset=".15" stop-color="#d0cfcd"/>
      <stop offset=".2716" stop-color="#d3d2d0"/>
      <stop offset=".3854" stop-color="#dededb"/>
      <stop offset=".4957" stop-color="#f0f0ed"/>
      <stop offset=".5058" stop-color="#f3f3f0"/>
    </linearGradient>
  </defs>
  <g id="h" data-name="Logo">
    <g>
      <path class="ac" d="M3324.7671,37.1797c31.126,0,59.6797,5.1924,84.8672,15.4326,2.1172.8604,4.2539,1.7764,6.3428,2.7178,2.2822,1.0244,4.4316,2.04,6.5166,3.0781,5.1221,2.5518,10.1543,5.3623,14.9658,8.3584,6.0371,3.7588,11.9082,7.9229,17.4512,12.375,4.5244,3.6348,8.8486,7.4844,12.8574,11.4443,29.0205,28.6846,44.3564,66.1562,44.3564,108.3721v375.4238H301.5368l-24.59,32.0557H0v-82.7002l199.9438-260.1094h-20.4141L73.0078,125.1123V37.04l99.2144-.0117,12.1465-26.1953,60.1528-.1104h31.7397l12.3711,26.3066,501.1963-.0723L826.7861,0h62.2842l36.9741,36.9736,2398.7227.2061ZM2539.5483,37.1797,2173.7329,37.1797"/>
      <g id="i" data-name="Gun">
        <g>
          <g>
            <polygon class="ae" points="207.1094 207.6279 129.0078 106.0703 129.0078 93.0332 207.9863 93.0244 220.1602 66.7676 240.7158 66.7295 253.0859 93.0352 813.0273 92.9541 849.9814 56 865.875 56 878.8145 68.9404 878.8145 92.9736 914.0283 92.9736 931.6504 110.5957 931.6504 180.2578 910.5869 207.6328 207.1094 207.6279"/>
            <path class="ag" d="M863.3892,62.0002l9.4253,9.4253v27.5481h38.7285l14.1069,14.1069v65.1359l-18.0166,23.4159-697.5698-.0044-75.0557-97.5985v-4.9967l69.1475-.0076,7.6621-.0007,3.2231-6.9513,8.9546-19.3126,12.9155-.0236,9.1255,19.4038,3.2417,6.8943,7.6187-.001,553.6475-.0797,4.9697-.0006,3.5142-3.514,33.4395-33.4395h10.9219M868.3599,50.0002h-20.8633l-36.9541,36.9541-553.6475.0797-12.3735-26.3112-28.1958.0516-12.1719,26.2506-81.146.0089v21.0759l81.146,105.5179,709.3872.0045,24.1089-31.3337v-74.1887l-21.1362-21.1364h-31.6992v-20.5186l-16.4546-16.4548h0Z"/>
          </g>
          <g>
            <polygon class="y" points="56 550.4375 56 542.7734 259.8506 277.5811 761.71 277.5811 738.3652 307.9141 575.498 307.9141 514.6709 386.917 375.2988 386.8799 249.3857 550.4375 56 550.4375"/>
            <path class="aa" d="M749.521,283.5813l-14.1094,18.3326h-162.8657l-3.603,4.6792-57.2241,74.3229-133.4644-.0352-5.9077-.0016-3.604,4.6813-122.3101,158.8767H62.2888l200.5173-260.856h486.7148M773.8989,271.5813H256.895L50,540.7338v15.7035h202.3389l125.9126-163.5564,139.3716.0367,60.8281-79.0037h162.8672l32.5806-42.3326h0Z"/>
          </g>
        </g>
      </g>
      <g id="l" data-name="Text">
        <g id="m" data-name="Subtext">
          <polygon class="ak" points="1089.9414 487.5387 1589.9414 477.5387 1589.9414 497.5387 1089.9414 487.5387"/>
          <polygon class="ad" points="2962.0391 477.5387 3462.0391 487.5387 2962.0391 497.5387 2962.0391 477.5387"/>
          <g>
            <g>
              <path class="ai" d="M1785.751,522.3818l-7.5234-13.7344h-58.0254l-7.5234,13.7344h-23.998l43.2129-79.6016h34.6426l43.2119,79.6016h-23.9971ZM1728.0557,494.0166h42.3184l-21.1592-38.9111-21.1592,38.9111Z"/>
              <path class="aa" d="M1765.3462,444.7803l41.041,75.6016h-19.4517l-6.3848-11.6561-1.1387-2.0782h-60.3945l-1.1387,2.0782-6.3853,11.6561h-19.4517l41.041-75.6016h32.2632M1724.6909,496.0166h49.0479l-3.2144-5.9109-17.7954-32.7246-3.5142-6.462-3.5142,6.462-17.7954,32.7246-3.2144,5.9109M1767.7261,440.7803h-37.0229l-45.3838,83.6016h28.5439l7.5239-13.7344h55.6553l7.5234,13.7344h28.5439l-45.3838-83.6016h0ZM1731.4194,492.0166l17.7954-32.7246,17.7954,32.7246h-35.5908Z"/>
            </g>
            <g>
              <path class="af" d="M1933.8594,524.6514c-45.9385,0-55.1797-1.8291-55.665-24.1855h21.6572v7.2852h68.0137v-17.8545h-34.0059c-47.3359,0-54.6113,0-54.6113-23.5576,0-22.6895,6.6494-25.8271,54.7305-25.8271,45.9385,0,54.0254,3.2217,54.4697,24.1855h-21.5381v-7.2852h-66.1035v17.8535h33.0527c48.3682,0,55.8027,0,55.8027,23.5576,0,22.6904-6.7793,25.8281-55.8027,25.8281Z"/>
              <path class="aa" d="M1933.978,442.5117c22.6538,0,36.3652.6664,43.938,4.1812,4.8359,2.2446,7.854,5.7369,8.4453,16.0044h-17.4507v-7.2852h-70.1045v21.8535h35.0527c23.4893,0,37.667,0,45.4487,2.937,5.5415,2.0914,8.355,5.5455,8.355,18.6206,0,13.425-3.0854,17.3295-8.7793,19.838-7.6558,3.373-21.1689,3.9901-45.0244,3.9901-23.8843,0-37.394-.6161-44.9502-3.9833-5.0718-2.2599-8.0635-5.675-8.6348-16.2023h17.5771v7.2852h72.0146v-21.8545h-36.0068c-23.1055,0-37.0518,0-44.5947-2.9242-5.3164-2.0609-8.0156-5.5087-8.0156-18.6334,0-13.4456,3.0161-17.3492,8.5815-19.8492,7.4863-3.3627,20.7407-3.9779,44.1479-3.9779M1933.978,438.5117c-46.459,0-56.7295,2.2686-56.7295,27.8271s9.3154,25.5576,56.6104,25.5576h32.0068v13.8545h-64.0146v-7.2852h-25.6777c0,26.0352,10.3906,28.1855,57.6855,28.1855s57.8037-2.2695,57.8037-27.8281-9.9121-25.5576-57.8037-25.5576h-31.0527v-13.8535h62.1045v7.2852h25.5576c0-25.4395-10.1514-28.1855-56.4902-28.1855h0Z"/>
            </g>
            <g>
              <path class="aj" d="M2118.9785,524.6514c-45.9385,0-55.1797-1.8291-55.665-24.1855h21.6572v7.2852h68.0137v-17.8545h-34.0059c-47.3359,0-54.6113,0-54.6113-23.5576,0-22.6895,6.6494-25.8271,54.7305-25.8271,45.9385,0,54.0254,3.2217,54.4697,24.1855h-21.5381v-7.2852h-66.1035v17.8535h33.0527c48.3682,0,55.8027,0,55.8027,23.5576,0,22.6904-6.7793,25.8281-55.8027,25.8281Z"/>
              <path class="aa" d="M2119.0972,442.5117c22.6538,0,36.3652.6664,43.938,4.1812,4.8359,2.2446,7.854,5.7369,8.4453,16.0044h-17.4507v-7.2852h-70.1045v21.8535h35.0527c23.4893,0,37.667,0,45.4487,2.937,5.5415,2.0914,8.355,5.5455,8.355,18.6206,0,13.425-3.0854,17.3295-8.7793,19.838-7.6558,3.373-21.1689,3.9901-45.0244,3.9901-23.8843,0-37.394-.6161-44.9502-3.9833-5.0718-2.2599-8.0635-5.675-8.6348-16.2023h17.5771v7.2852h72.0146v-21.8545h-36.0068c-23.1055,0-37.0518,0-44.5947-2.9242-5.3164-2.0609-8.0156-5.5087-8.0156-18.6334,0-13.4456,3.0161-17.3492,8.5815-19.8492,7.4863-3.3627,20.7407-3.9779,44.1479-3.9779M2119.0972,438.5117c-46.459,0-56.7295,2.2686-56.7295,27.8271s9.3154,25.5576,56.6104,25.5576h32.0068v13.8545h-64.0146v-7.2852h-25.6777c0,26.0352,10.3906,28.1855,57.6855,28.1855s57.8037-2.2695,57.8037-27.8281-9.9121-25.5576-57.8037-25.5576h-31.0527v-13.8535h62.1045v7.2852h25.5576c0-25.4395-10.1514-28.1855-56.4902-28.1855h0Z"/>
            </g>
            <g>
              <path class="ai" d="M2340.3955,522.3818l-7.5234-13.7344h-58.0234l-7.5254,13.7344h-23.9971l43.2119-79.6016h34.6426l43.2139,79.6016h-23.999ZM2282.7002,494.0166h42.3184l-21.1592-38.9111-21.1592,38.9111Z"/>
              <path class="aa" d="M2319.9917,444.7803l41.041,75.6016h-19.4517l-6.3862-11.6562-1.1382-2.0781h-60.3936l-1.1382,2.0781-6.3862,11.6562h-19.4517l41.041-75.6016h32.2637M2279.3369,496.0166h49.0459l-3.2139-5.9109-17.7949-32.7246-3.5142-6.4623-3.5142,6.4623-17.7949,32.7246-3.2139,5.9109M2322.3716,440.7803h-37.0234l-45.3838,83.6016h28.5439l7.5244-13.7344h55.6543l7.5244,13.7344h28.5439l-45.3838-83.6016h0ZM2286.0649,492.0166l17.7949-32.7246,17.7949,32.7246h-35.5898Z"/>
            </g>
            <g>
              <path class="am" d="M2486.8301,524.6514c-27.499,0-41.1572-.5566-47.5732-5.6436-6.2139-4.9277-6.21-15.3896-6.2031-34.3838l.001-41.8438h21.5586v65.0898h64.3125v-65.0898h21.5586l.001,41.8477c.0068,18.9932.0107,29.4551-6.1895,34.3818-6.4004,5.085-20.0283,5.6416-47.4658,5.6416Z"/>
              <path class="aa" d="M2538.4839,444.7803v37.8008l.0005,2.0498c.0073,18.3689.0112,28.4874-5.4331,32.8129-6.1138,4.8572-21.5405,5.2076-46.2217,5.2076-24.7373,0-40.1997-.3507-46.3296-5.2109-5.4561-4.3263-5.4521-14.4454-5.4453-32.8157l.0005-2.0437v-37.8008h17.5586v65.0898h68.3125v-65.0898h17.5576M2542.4839,440.7803h-25.5576v65.0898h-60.3125v-65.0898h-25.5586v41.8008c0,41.8008-.9551,44.0703,55.7744,44.0703,56.6104,0,55.6543-2.2695,55.6543-44.0703v-41.8008h0Z"/>
            </g>
            <g>
              <polygon class="ab" points="2618.0566 522.3818 2618.0566 442.7803 2639.6133 442.7803 2639.6133 507.751 2710.6758 507.751 2710.6758 522.3818 2618.0566 522.3818"/>
              <path class="aa" d="M2637.6138,444.7803v64.9707h71.0615v10.6309h-88.6191v-75.6016h17.5576M2641.6138,440.7803h-25.5576v83.6016h96.6191v-18.6309h-71.0615v-64.9707h0Z"/>
            </g>
            <g>
              <polygon class="al" points="2803.8926 522.3818 2803.8926 457.4121 2758.0312 457.4121 2758.0312 442.7803 2871.3125 442.7803 2871.3125 457.4121 2825.4512 457.4121 2825.4512 522.3818 2803.8926 522.3818"/>
              <path class="aa" d="M2869.312,444.7803v10.6318h-45.8613v64.9697h-17.5576v-64.9697h-45.8613v-10.6318h109.2803M2873.312,440.7803h-117.2803v18.6318h45.8613v64.9697h25.5576v-64.9697h45.8613v-18.6318h0Z"/>
            </g>
          </g>
        </g>
        <g id="v" data-name="Forward">
          <g>
            <g>
              <path class="z" d="M1337.3778,87.1792l-45.4691,59.0463h-131.0414v52.1923h165.4593l-45.4691,58.7321h-119.9902v57.6916h-70.7309V87.1792h247.2414Z"/>
              <path class="ah" d="M1325.1846,93.1792l-36.2285,47.0463h-134.0889v64.1923h159.2266l-36.1792,46.7322h-123.0474v57.6915h-58.731V93.1792h229.0483M1337.3779,87.1792h-247.2417v227.6622h70.731v-57.6915h119.9902l45.4692-58.7322h-165.4595v-52.1923h131.0415l45.4692-59.0463h0Z"/>
            </g>
            <g>
              <path class="z" d="M1690.713,198.9582c0,33.2644-13.0004,60.8924-38.9985,82.8867-26.0007,21.9994-58.7836,32.9966-98.3589,32.9966h-68.5191c-39.7865,0-72.6801-10.9971-98.6757-32.9966-26.0007-21.9943-38.996-49.6223-38.996-82.8867s12.8922-60.2024,38.6793-80.8346c25.7845-20.6271,58.7811-30.9444,98.9924-30.9444h68.5191c40.2061,0,73.1487,10.3174,98.8327,30.9444,25.6815,20.6322,38.5248,47.5753,38.5248,80.8346ZM1553.3555,146.2254h-68.5191c-19.5791,0-35.6822,5.2115-48.3118,15.6319-12.6296,10.4204-18.9457,23.7349-18.9457,39.9435s6.3161,29.3146,18.9457,39.3127c12.6296,10.0007,28.7327,14.9985,48.3118,14.9985h68.5191c19.5765,0,35.6822-4.9978,48.3118-14.9985,12.6296-9.9981,18.9457-23.1015,18.9457-39.3127s-6.3702-29.5231-19.1027-39.9435c-12.7403-10.4204-28.7893-15.6319-48.1547-15.6319Z"/>
              <path class="ah" d="M1553.3555,93.1792c38.6128,0,70.6011,9.9664,95.0752,29.6219,12.0718,9.6986,21.2349,20.9985,27.2344,33.5861,6.0039,12.597,9.0479,26.92,9.0479,42.5709,0,15.6643-3.0884,30.1704-9.1792,43.1152-6.1001,12.9648-15.418,24.8048-27.6948,35.191-12.3569,10.4556-26.5288,18.4093-42.1216,23.6401-15.6992,5.2665-33.3164,7.9369-52.3618,7.9369h-68.519c-19.1533,0-36.8525-2.671-52.6069-7.9387-15.6445-5.2313-29.8403-13.1842-42.1938-23.6388-12.2769-10.3851-21.5942-22.2249-27.6938-35.1903-6.0898-12.9438-9.1772-27.45-9.1772-43.1155,0-15.6483,3.0557-29.9685,9.082-42.5625,6.0229-12.5876,15.2236-23.8879,27.3457-33.5867,24.5767-19.6609,56.6211-29.6298,95.2441-29.6298h68.519M1484.8364,262.1119h68.519c20.874,0,38.3818-5.4822,52.0361-16.2941,14.0815-11.1476,21.2212-25.957,21.2212-44.0171,0-18.017-7.167-33.0181-21.3037-44.5878-13.7817-11.2721-31.2612-16.9875-51.9536-16.9875h-68.519c-20.916,0-38.4556,5.7209-52.1299,17.0038-14.019,11.5665-21.1274,26.5625-21.1274,44.5715,0,18.0602,7.1401,32.8698,21.2212,44.0166,13.6543,10.8123,31.1616,16.2946,52.0361,16.2946M1553.3555,87.1792h-68.519c-40.2114,0-73.208,10.3174-98.9922,30.9445-25.7871,20.6322-38.6797,47.5753-38.6797,80.8345s12.9956,60.8925,38.9961,82.8867c25.9956,21.9995,58.8892,32.9966,98.6758,32.9966h68.519c39.5752,0,72.3584-10.9971,98.3589-32.9966,25.998-21.9943,38.9985-49.6223,38.9985-82.8867s-12.8433-60.2023-38.5244-80.8345c-25.6841-20.6271-58.627-30.9445-98.833-30.9445h0ZM1484.8364,256.1119c-19.5791,0-35.6821-4.9978-48.3115-14.9984-12.6299-9.9982-18.9458-23.1016-18.9458-39.3127s6.3159-29.5231,18.9458-39.9435c12.6294-10.4204,28.7324-15.6318,48.3115-15.6318h68.519c19.3652,0,35.4146,5.2114,48.1548,15.6318,12.7324,10.4204,19.1025,23.7349,19.1025,39.9435s-6.3159,29.3146-18.9453,39.3127c-12.6299,10.0006-28.7354,14.9984-48.312,14.9984h-68.519Z"/>
            </g>
            <g>
              <path class="z" d="M2048.7833,314.8415h-102.6229l-68.8358-57.1512h-97.2518v57.1512h-70.7309v-116.2h196.4038c11.9988,0,21.8913-1.7844,29.6828-5.366,9.8925-4.6296,14.8362-11.4709,14.8362-20.5241,0-17.684-14.8362-26.526-44.519-26.526h-196.4038l46.1-59.0463h143.671c35.574,0,64.4174,6.7384,86.5198,20.2074,24.8369,15.3692,37.258,37.2605,37.258,65.6791,0,16.0001-5.0003,30.4707-14.9959,43.417-10.0007,12.9463-23.843,22.8929-41.5219,29.8398l82.4104,68.5191Z"/>
              <path class="ah" d="M1899.1128,93.1792c34.2896,0,62.3486,6.5038,83.3628,19.3094,23.1577,14.3302,34.415,34.145,34.415,60.5769,0,14.7688-4.4961,27.7711-13.7437,39.749-9.2817,12.0153-22.3926,21.41-38.9683,27.9235l-9.4438,3.7109,7.8022,6.4871,69.645,57.9054h-83.8555l-67.1694-55.7675-1.6665-1.3837h-105.418v57.1511h-58.731v-104.2h190.4038c12.8213,0,23.6514-1.9899,32.2261-5.9316,15.1191-7.0754,18.293-18.0216,18.293-25.9584,0-10.9073-4.8608-19.5691-14.0571-25.0488-8.4434-5.0314-20.3706-7.4772-36.4619-7.4772h-184.1074l36.7314-47.0463h140.7432M1899.1128,87.1792h-143.6709l-46.1001,59.0463h196.4038c29.6831,0,44.519,8.8419,44.519,26.526,0,9.0531-4.9434,15.8945-14.8359,20.524-7.7915,3.5815-17.6841,5.366-29.6831,5.366h-196.4038v116.2h70.731v-57.1511h97.252l68.8359,57.1511h102.6226l-82.4102-68.519c17.6787-6.9469,31.521-16.8936,41.522-29.8398,9.9956-12.9463,14.9956-27.4169,14.9956-43.417,0-28.4185-12.4209-50.3098-37.2578-65.6791-22.1025-13.469-50.9458-20.2073-86.52-20.2073h0Z"/>
            </g>
            <g>
              <path class="z" d="M2472.8494,87.1792l-59.0463,202.0864c-2.3225,8.0026-7.0551,14.7384-14.208,20.2048-7.7915,5.8964-16.5305,8.842-26.2119,8.842-14.9495,0-27.8958-8.842-38.8389-26.5209l-69.4641-113.3574-69.7834,113.3574c-10.7371,17.6789-23.5804,26.5209-38.5248,26.5209-9.6866,0-18.2659-2.8426-25.733-8.5227-7.4773-5.6827-12.3695-12.5215-14.6817-20.5241l-59.0514-202.0864h77.3637l29.9969,120.3043,63.784-102.6229c8.4146-13.469,19.9962-20.2074,34.7346-20.2074,7.7863,0,15.207,1.8951,22.2621,5.6827,7.0499,3.7902,12.4725,8.6334,16.2575,14.5247l63.784,102.6229,29.6828-120.3043h77.6778Z"/>
              <path class="ah" d="M2263.1851,90.6532c6.7471,0,13.2822,1.6719,19.4209,4.9674,6.0981,3.2784,10.8174,7.4656,14.0269,12.4457l63.7603,102.5845,7.5122,12.0867,3.4087-13.8167,28.5571-115.7416h64.9746l-56.8047,194.4139c-1.9756,6.8064-5.9297,12.4031-12.0664,17.0928-6.7812,5.1318-14.1709,7.6265-22.5913,7.6265-12.8389,0-23.8745-7.7454-33.7231-23.6558l-69.4639-113.3575-5.104-8.3293-5.1211,8.319-69.8027,113.3883c-9.6587,15.9042-20.583,23.6354-33.3965,23.6354-8.415,0-15.6445-2.3872-22.1025-7.2997-6.481-4.9257-10.5854-10.6215-12.5527-17.4299l-56.8066-194.4036h64.6724l28.8623,115.756,3.4312,13.7609,7.4868-12.0452,63.7764-102.6112c7.3091-11.6993,17.0063-17.3865,29.646-17.3865M2263.1851,84.6532c-14.7383,0-26.3198,6.7384-34.7344,20.2074l-63.7842,102.6229-29.9966-120.3043h-77.3638l59.0513,202.0864c2.3125,8.0026,7.2046,14.8413,14.6816,20.524,7.4673,5.6801,16.0464,8.5227,25.7329,8.5227,14.9448,0,27.7881-8.842,38.5249-26.5209l69.7837-113.3574,69.4639,113.3574c10.9429,17.6788,23.8892,26.5209,38.8389,26.5209,9.6816,0,18.4204-2.9457,26.2119-8.842,7.1528-5.4663,11.8853-12.2021,14.208-20.2047l59.0464-202.0864h-77.6782l-29.6826,120.3043-63.7837-102.6229c-3.7852-5.8912-9.208-10.7345-16.2578-14.5247-7.0552-3.7876-14.4756-5.6827-22.2622-5.6827h0Z"/>
            </g>
            <g>
              <path class="z" d="M2536.3141,314.8415l42.6291-59.0463h95.0425l-59.0463-81.7821-102.6229,140.8284h-87.4674l145.8802-202.4006c4.6296-6.7358,11.0512-12.6322,19.265-17.684,9.048-5.4715,17.787-8.2086,26.2067-8.2086,8.6309,0,17.3647,2.7371,26.2067,8.2086,7.7863,4.8459,14.0998,10.7371,18.9457,17.684l142.4093,202.4006h-267.4488Z"/>
              <path class="ah" d="M2616.2012,92.5483c7.4551,0,15.21,2.4597,23.0361,7.3027,7.0571,4.3918,12.8428,9.7826,17.209,16.0425l135.7583,192.9479h-244.1587l33.9658-47.0463h103.7065l-6.8677-9.5123-59.0464-81.782-4.8423-6.7065-4.8716,6.6852-100.8257,138.3619h-72.6948l139.0273-192.8923.0391-.0544.0381-.0553c4.1323-6.0126,10.0078-11.3862,17.4253-15.9482,8.0566-4.8723,15.8296-7.3428,23.1016-7.3428M2616.2012,86.5483c-8.4199,0-17.1587,2.7371-26.2065,8.2086-8.2139,5.0518-14.6357,10.9482-19.2651,17.684l-145.8804,202.4005h87.4673l102.623-140.8284,59.0464,81.7821h-95.0425l-42.6294,59.0463h267.4487l-142.4092-202.4005c-4.8457-6.9469-11.1592-12.8381-18.9458-17.684-8.8418-5.4716-17.5757-8.2086-26.2065-8.2086h0Z"/>
            </g>
            <g>
              <path class="z" d="M3152.6797,314.8415h-102.6229l-68.8358-57.1512h-97.2518v57.1512h-70.7309v-116.2h196.4038c11.9988,0,21.8913-1.7844,29.6828-5.366,9.8925-4.6296,14.8362-11.4709,14.8362-20.5241,0-17.684-14.8362-26.526-44.519-26.526h-196.4038l46.1-59.0463h143.671c35.574,0,64.4174,6.7384,86.5198,20.2074,24.8369,15.3692,37.258,37.2605,37.258,65.6791,0,16.0001-5.0003,30.4707-14.9959,43.417-10.0007,12.9463-23.843,22.8929-41.5219,29.8398l82.4104,68.5191Z"/>
              <path class="ah" d="M3003.0093,93.1792c34.2896,0,62.3486,6.5038,83.3628,19.3094,23.1577,14.3302,34.415,34.145,34.415,60.5769,0,14.7683-4.4961,27.7708-13.7446,39.7491-9.2808,12.015-22.3916,21.4099-38.9673,27.9233l-9.4438,3.7109,7.8022,6.4871,69.645,57.9054h-83.856l-67.1689-55.7675-1.6665-1.3837h-105.418v57.1511h-58.731v-104.2h190.4038c12.8213,0,23.6509-1.9899,32.2256-5.9316,15.1196-7.0757,18.2935-18.0217,18.2935-25.9584,0-10.9073-4.8608-19.5691-14.0571-25.0488-8.4438-5.0314-20.3706-7.4772-36.4619-7.4772h-184.1074l36.7314-47.0463h140.7432M3003.0093,87.1792h-143.6709l-46.1001,59.0463h196.4038c29.6826,0,44.519,8.8419,44.519,26.526,0,9.0531-4.9438,15.8945-14.8364,20.524-7.7915,3.5815-17.6841,5.366-29.6826,5.366h-196.4038v116.2h70.731v-57.1511h97.252l68.8354,57.1511h102.623l-82.4102-68.519c17.6787-6.9469,31.521-16.8936,41.5215-29.8398,9.9956-12.9463,14.9961-27.4169,14.9961-43.417,0-28.4185-12.4209-50.3098-37.2578-65.6791-22.1025-13.469-50.9458-20.2073-86.52-20.2073h0Z"/>
            </g>
            <g>
              <path class="z" d="M3462.1241,198.9582c0,33.2644-12.9978,60.8924-38.9985,82.8867-26.0007,21.9994-58.7836,32.9966-98.3589,32.9966h-152.513v-116.2783h70.7309v57.5487h81.7821c19.5791,0,35.6822-4.9978,48.3143-14.9985,12.627-9.9981,18.9457-23.1015,18.9457-39.3127s-6.3702-29.5231-19.1053-39.9435c-12.7403-10.4204-28.7867-15.6319-48.1547-15.6319h-152.513l44.8383-59.0463h107.6747c40.2087,0,73.1512,10.3174,98.8327,30.9444,25.6815,20.6322,38.5248,47.5753,38.5248,80.8346Z"/>
              <path class="ah" d="M3324.7666,93.1792c38.6152,0,70.603,9.9664,95.0747,29.6219,12.0723,9.6986,21.2354,20.9987,27.2344,33.5861,6.0039,12.597,9.0483,26.9199,9.0483,42.5709,0,15.6652-3.0879,30.1713-9.1782,43.1154-6.0996,12.9652-15.418,24.8051-27.6958,35.1909-12.3569,10.4556-26.5288,18.4093-42.1216,23.6401-15.6992,5.2666-33.3164,7.9369-52.3618,7.9369h-146.5132v-104.2782h58.731v57.5487h87.7822c20.873,0,38.3813-5.4822,52.0391-16.2944,14.0815-11.1498,21.2212-25.9591,21.2212-44.0167,0-18.0181-7.1685-33.0194-21.3066-44.5878-13.7817-11.2722-31.2612-16.9875-51.9536-16.9875h-140.4229l35.7256-47.0463h104.6973M3324.7666,87.1792h-107.6748l-44.8384,59.0463h152.5132c19.3682,0,35.4146,5.2114,48.1548,15.6318,12.7354,10.4204,19.1055,23.7349,19.1055,39.9435s-6.3188,29.3146-18.9458,39.3127c-12.6323,10.0006-28.7354,14.9984-48.3145,14.9984h-81.7822v-57.5487h-70.731v116.2782h152.5132c39.5752,0,72.3584-10.9971,98.3589-32.9966,26.001-21.9943,38.9985-49.6223,38.9985-82.8867s-12.8433-60.2023-38.5249-80.8345c-25.6812-20.6271-58.6235-30.9445-98.8325-30.9445h0Z"/>
            </g>
          </g>
        </g>
      </g>
    </g>
  </g>
</svg>